HIERARCHY
ROOT hip
{
	OFFSET 0.000000 0.000000 0.000000 
	CHANNELS 6 Xposition Yposition Zposition Zrotation Xrotation Yrotation
	JOINT abdomen
	{
		OFFSET 0.000000 3.402643 0.000000 
		CHANNELS 3 Zrotation Xrotation Yrotation
		JOINT chest
		{
			OFFSET 0.000000 8.438565 -0.680529 
			CHANNELS 3 Zrotation Xrotation Yrotation
			JOINT neck
			{
				OFFSET 0.000000 10.207942 -0.272212 
				CHANNELS 3 Zrotation Xrotation Yrotation
				JOINT head
				{
					OFFSET 0.000000 3.130431 0.000000 
					CHANNELS 3 Zrotation Xrotation Yrotation
					End Site
					{
						OFFSET 0.000000 3.130435 0.000000 
					}
				}
			}
			JOINT lCollar
			{
				OFFSET 3.470700 6.669187 -0.816635 
				CHANNELS 3 Zrotation Xrotation Yrotation
				JOINT lShldr
				{
					OFFSET 3.198488 0.000000 0.000000 
					CHANNELS 3 Zrotation Xrotation Yrotation
					JOINT lForeArm
					{
						OFFSET 10.139888 0.000000 0.000000 
						CHANNELS 3 Zrotation Xrotation Yrotation
						JOINT lHand
						{
							OFFSET 8.370511 0.000000 0.000000 
							CHANNELS 3 Zrotation Xrotation Yrotation
							End Site
							{
								OFFSET 4.083176 0.000000 0.000000 
							}
						}
					}
				}
			}
			JOINT rCollar
			{
				OFFSET -3.470700 6.669187 -0.816635 
				CHANNELS 3 Zrotation Xrotation Yrotation
				JOINT rShldr
				{
					OFFSET -3.198488 0.000000 0.000000 
					CHANNELS 3 Zrotation Xrotation Yrotation
					JOINT rForeArm
					{
						OFFSET -10.139888 0.000000 0.000000 
						CHANNELS 3 Zrotation Xrotation Yrotation
						JOINT rHand
						{
							OFFSET -8.370511 0.000000 0.000000 
							CHANNELS 3 Zrotation Xrotation Yrotation
							End Site
							{
								OFFSET -4.083176 0.000000 0.000000 
							}
						}
					}
				}
			}
		}
	}
	JOINT lThigh
	{
		OFFSET 5.308129 -1.633274 1.361059 
		CHANNELS 3 Zrotation Xrotation Yrotation
		JOINT lShin
		{
			OFFSET -2.041588 -20.007561 0.000000 
			CHANNELS 3 Zrotation Xrotation Yrotation
			JOINT lFoot
			{
				OFFSET 0.000000 -19.190928 -1.224953 
				CHANNELS 3 Zrotation Xrotation Yrotation
				End Site
				{
					OFFSET 0.000000 -2.449906 4.627600 
				}
			}
		}
	}
	JOINT rThigh
	{
		OFFSET -5.308129 -1.633274 1.361059 
		CHANNELS 3 Zrotation Xrotation Yrotation
		JOINT rShin
		{
			OFFSET 2.041588 -20.007561 0.000000 
			CHANNELS 3 Zrotation Xrotation Yrotation
			JOINT rFoot
			{
				OFFSET 0.000000 -19.190928 -1.224953 
				CHANNELS 3 Zrotation Xrotation Yrotation
				End Site
				{
					OFFSET 0.000000 -2.449906 4.627600 
				}
			}
		}
	}
}
MOTION
Frames: 11
Frame Time: 0.016667
-6.791400 42.949188 4.653970 2.285160 2.060550 35.739803 8.479890 16.917999 -5.687450 1.035890 -18.666599 -5.956010 8.543970 14.630900 -5.484770 8.855880 13.555300 -3.270330 -1.998780 -0.069785 1.998780 -79.076401 25.849600 -35.724499 -1.698360 -0.222835 -119.014999 -0.048769 51.433998 0.005393 1.998780 -0.069785 -1.998780 79.082100 8.784000 4.143690 -1.406570 -3.540730 134.128998 0.084954 22.319000 -0.053370 3.884690 -2.919500 -11.518600 4.270860 49.322102 -0.130410 -6.061740 -27.365200 -12.059700 -9.608340 -40.394501 1.302740 -3.312470 45.723202 -0.784626 -3.459110 -7.447830 -17.254601 
-6.677340 43.155689 3.775930 1.972660 2.070310 34.079601 8.769160 16.981701 -5.904880 1.026130 -18.775000 -6.207790 8.693710 14.809700 -5.817920 8.806010 13.516700 -3.414440 -1.998780 -0.069785 1.998780 -80.074600 25.807600 -34.927299 -1.703600 -0.235448 -118.625000 -0.048058 51.648998 0.004450 1.998780 -0.069785 -1.998780 77.302299 8.352910 7.574810 -1.375820 -3.565720 135.263000 0.084345 22.885000 -0.051977 3.319880 -2.863860 -9.959190 4.215700 48.077099 -0.080331 -5.502840 -28.565701 -10.488200 -8.923620 -40.269699 3.045770 -3.442080 42.695202 -0.608062 -3.149050 -6.202560 -18.160999 
-6.566720 43.374588 2.941360 1.533210 2.001950 32.419403 8.689360 17.015100 -5.935750 0.965326 -18.897699 -6.326380 9.029140 15.036700 -6.281600 8.816170 13.545800 -3.609140 -1.998780 -0.069785 1.998780 -80.811897 25.796400 -34.515999 -1.711580 -0.255048 -118.018997 -0.044599 52.653999 -0.000089 1.998780 -0.069785 -1.998780 75.801903 7.507260 10.862200 -1.356490 -3.580910 135.966995 0.082857 24.202999 -0.048687 2.971780 -2.964030 -8.160830 4.164980 46.970001 -0.027233 -4.720520 -29.378700 -8.714180 -8.179750 -40.035198 4.365820 -3.538290 39.844898 -0.490647 -2.927780 -5.564360 -18.129601 
-6.478680 43.568287 2.163810 1.181640 2.041020 30.759201 8.499710 16.907301 -5.840830 0.876275 -19.064699 -6.302210 9.851760 15.447100 -6.847270 9.056190 13.787900 -3.841170 -1.998780 -0.069785 1.998780 -81.072601 25.688700 -34.526001 -1.717240 -0.269305 -117.580002 -0.044112 52.791000 -0.000722 1.998780 -0.069785 -1.998780 74.476097 6.503880 13.701900 -1.343210 -3.591120 136.445999 0.081548 25.297001 -0.045902 2.532660 -3.067840 -6.793870 4.090040 45.835400 0.047020 -3.995050 -29.948900 -7.200930 -7.690030 -39.956902 4.388800 -3.540970 38.644501 -0.475507 -2.816640 -5.859750 -15.728900 
-6.399650 43.751789 1.409050 0.878906 2.109370 29.108704 8.246750 16.753500 -5.704450 0.775719 -19.253201 -6.227090 10.864800 15.920100 -7.465410 9.386320 14.107200 -4.080340 -1.998780 -0.069785 1.998780 -81.146400 25.555799 -34.696899 -1.722080 -0.281702 -117.199997 -0.044876 52.576000 0.000271 1.998780 -0.069785 -1.998780 73.260002 5.427170 16.346300 -1.332320 -3.599390 136.837997 0.080269 26.313000 -0.043267 2.052650 -3.165680 -5.599390 4.027470 44.758202 0.088344 -3.319260 -30.474400 -5.793330 -7.301600 -39.907299 3.891610 -3.509330 38.175201 -0.494132 -2.714690 -6.612910 -12.419100 
-6.391960 44.007587 0.757371 0.507814 2.089850 28.093105 8.210100 16.638000 -5.672410 0.830470 -19.351400 -6.210320 10.761300 15.632400 -7.977670 9.197420 14.050300 -4.292080 -1.998780 -0.069785 1.998780 -80.834999 25.590099 -35.341202 -1.723510 -0.285526 -117.083000 -0.048447 51.530998 0.004965 1.998780 -0.069785 -1.998780 71.955002 4.907800 18.049400 -1.318090 -3.609970 137.345001 0.079952 26.556999 -0.042627 1.846130 -3.452500 -5.522440 4.004960 43.775799 0.093541 -3.113980 -30.009800 -5.377620 -6.773260 -39.643101 3.202550 -3.392670 39.829498 -0.634457 -2.643090 -7.378380 -10.452500 
-6.408750 44.295689 0.142002 0.126953 2.080070 27.272701 8.224260 16.519899 -5.687320 0.886676 -19.447901 -6.245310 10.834400 15.325500 -8.489860 9.107760 14.002300 -4.509790 -1.998780 -0.069785 1.998780 -80.538399 25.638800 -35.856201 -1.724000 -0.286793 -117.043999 -0.050636 50.858002 0.007883 1.998780 -0.069785 -1.998780 70.722099 4.538830 19.451500 -1.306780 -3.618270 137.746994 0.078937 27.318001 -0.040608 1.742840 -3.718420 -5.439030 3.951980 42.628399 0.114542 -2.963410 -29.251101 -5.166510 -6.247280 -39.269402 2.671860 -3.265560 41.679001 -0.776316 -2.605080 -8.065270 -9.020370 
-6.486850 44.664288 -0.382506 -0.283203 2.099600 26.950401 8.360100 16.396000 -5.814220 0.923657 -19.567600 -6.447170 11.347700 14.989600 -9.004930 9.246230 13.971800 -4.715410 -1.998780 -0.069785 1.998780 -80.313797 25.705900 -36.049599 -1.722290 -0.282332 -117.181000 -0.049727 51.140999 0.006667 1.998780 -0.069785 -1.998780 69.648399 4.640440 20.129801 -1.303180 -3.620880 137.873993 0.076063 29.340000 -0.035110 1.876830 -4.102440 -5.362610 3.947820 41.369801 0.132790 -3.002060 -27.852900 -5.466990 -5.695520 -38.569000 2.520180 -3.122280 43.950699 -0.954196 -2.654610 -8.584640 -8.799500 
-6.603910 45.087185 -0.837782 -0.654297 2.236320 27.096703 8.529860 16.338699 -6.029520 0.890234 -19.691099 -6.794950 11.813500 14.748000 -9.466260 9.375440 14.009600 -4.899480 -1.998780 -0.069785 1.998780 -80.015602 25.860600 -36.115101 -1.720600 -0.277889 -117.317001 -0.048802 51.424000 0.005436 1.998780 -0.069785 -1.998780 69.006599 4.811020 20.262501 -1.300690 -3.622680 137.962006 0.073315 31.108000 -0.030111 2.130450 -4.615320 -5.261170 3.898530 40.164001 0.172765 -3.153720 -26.024599 -6.163490 -5.350480 -37.635502 2.309760 -3.016090 45.843399 -1.070540 -2.670890 -8.162710 -9.176570 
-6.750200 45.550686 -1.241140 -0.996094 2.451170 27.585003 8.712320 16.329399 -6.297930 0.800997 -19.809700 -7.246900 12.261600 14.581100 -9.873570 9.485430 14.106300 -5.054600 -1.998780 -0.069785 1.998780 -79.672897 26.079500 -36.078300 -1.718860 -0.273430 -117.453003 -0.047829 51.716999 0.004147 1.998780 -0.069785 -1.998780 68.695503 5.039080 19.994600 -1.299330 -3.623660 138.009995 0.070688 32.669998 -0.025528 2.450870 -5.247500 -5.139320 3.864000 38.887001 0.181884 -3.357370 -23.717400 -7.154730 -5.156190 -36.549301 2.082620 -2.936500 47.478600 -1.176510 -2.653480 -7.014030 -10.006400 
-6.926870 46.039185 -1.575530 -1.318360 2.929690 28.463898 8.754280 16.170700 -6.488600 0.609122 -20.064600 -7.685650 12.738900 14.568700 -10.385600 9.596140 14.271300 -5.247540 -1.998780 -0.069785 1.998780 -79.193901 26.672701 -36.015800 -1.718730 -0.273111 -117.462997 -0.049314 51.268002 0.006116 1.998780 -0.069785 -1.998780 69.099403 5.246990 18.548500 -1.299040 -3.623870 138.020004 0.070773 32.620998 -0.025673 2.681830 -6.441860 -5.154990 3.809130 38.026501 0.232110 -3.496660 -20.718399 -8.553030 -5.239570 -35.279099 1.614660 -2.894960 48.089500 -1.217420 -2.546280 -5.644120 -10.608400 
